<?xml version="1.0" encoding="utf-8"?>
<svg xmlns="http://www.w3.org/2000/svg"
	xmlns:xlink="http://www.w3.org/1999/xlink"
	width="74px" height="73px" viewBox="0 0 74 73">
<clipPath id="clip0"><path fillRule="evenodd" d="M-2.09 75.44C-2.09 75.44-2.09-2.81-2.09-2.81-2.09-2.81 76.16-2.81 76.16-2.81 76.16-2.81 76.16 75.44 76.16 75.44 76.16 75.44-2.09 75.44-2.09 75.44ZM 37.03 3.19C 18.74 3.19 3.91 18.02 3.91 36.31 3.91 54.6 18.74 69.43 37.03 69.43 55.33 69.43 70.16 54.6 70.16 36.31 70.16 18.02 55.33 3.19 37.03 3.19Z"/></clipPath><defs>
<symbol id="symbol0"><circle cx="37.00" cy="36.00" r="33.00"/></symbol></defs>
<g><use xlink:href="#symbol0" x="0" y="0" width="74" height="73" fill="rgb(255,255,255)"/><use xlink:href="#symbol0" x="0" y="0" width="74" height="73" fill="none" stroke="rgb(253,209,53)" stroke-width="3.00px" clip-path="url(#clip0)"/></g><path fillRule="evenodd" d="M 52.86 33.33C 52.86 33.33 21.2 33.33 21.2 33.33 19.3 33.33 17.75 31.79 17.75 29.89 17.75 27.99 19.3 26.45 21.2 26.45 21.2 26.45 25.09 26.45 25.09 26.45 25.15 26.23 25.23 26.01 25.35 25.8 25.35 25.8 29.48 18.65 29.48 18.65 30.24 17.33 31.93 16.88 33.24 17.64 34.56 18.4 35.01 20.09 34.25 21.4 34.25 21.4 31.34 26.45 31.34 26.45 31.34 26.45 42.72 26.45 42.72 26.45 42.72 26.45 39.81 21.4 39.81 21.4 39.05 20.09 39.5 18.4 40.81 17.64 42.13 16.88 43.81 17.33 44.58 18.65 44.58 18.65 48.71 25.8 48.71 25.8 48.82 26.01 48.9 26.23 48.97 26.45 48.97 26.45 52.86 26.45 52.86 26.45 54.76 26.45 56.3 27.99 56.3 29.89 56.3 31.79 54.76 33.33 52.86 33.33ZM 52.28 55.36C 52.28 55.36 21.78 55.36 21.78 55.36 21.78 55.36 20.59 34.71 20.59 34.71 20.59 34.71 53.47 34.71 53.47 34.71 53.47 34.71 52.28 55.36 52.28 55.36ZM 30.14 41.59C 30.14 40.83 29.53 40.21 28.77 40.21 28.01 40.21 27.39 40.83 27.39 41.59 27.39 41.59 27.39 49.85 27.39 49.85 27.39 50.61 28.01 51.23 28.77 51.23 29.53 51.23 30.14 50.61 30.14 49.85 30.14 49.85 30.14 41.59 30.14 41.59ZM 38.4 41.59C 38.4 40.83 37.79 40.21 37.03 40.21 36.27 40.21 35.65 40.83 35.65 41.59 35.65 41.59 35.65 49.85 35.65 49.85 35.65 50.61 36.27 51.23 37.03 51.23 37.79 51.23 38.4 50.61 38.4 49.85 38.4 49.85 38.4 41.59 38.4 41.59ZM 46.66 41.59C 46.66 40.83 46.05 40.21 45.29 40.21 44.53 40.21 43.91 40.83 43.91 41.59 43.91 41.59 43.91 49.85 43.91 49.85 43.91 50.61 44.53 51.23 45.29 51.23 46.05 51.23 46.66 50.61 46.66 49.85 46.66 49.85 46.66 41.59 46.66 41.59Z" fill="rgb(253,208,53)"/></svg>