<?xml version="1.0" encoding="utf-8"?>
<svg xmlns="http://www.w3.org/2000/svg"
	xmlns:xlink="http://www.w3.org/1999/xlink"
	width="74px" height="73px" viewBox="0 0 74 73">
<clipPath id="clip0"><path fillRule="evenodd" d="M-2.22 75.44C-2.22 75.44-2.22-2.81-2.22-2.81-2.22-2.81 76.03-2.81 76.03-2.81 76.03-2.81 76.03 75.44 76.03 75.44 76.03 75.44-2.22 75.44-2.22 75.44ZM 36.91 3.19C 18.62 3.19 3.79 18.02 3.79 36.32 3.79 54.61 18.62 69.44 36.91 69.44 55.21 69.44 70.04 54.61 70.04 36.32 70.04 18.02 55.21 3.19 36.91 3.19Z"/></clipPath><defs>
<symbol id="symbol0"><circle cx="37.00" cy="36.00" r="33.00"/></symbol></defs>
<g><use xlink:href="#symbol0" x="0" y="0" width="74" height="73" fill="rgb(255,255,255)"/><use xlink:href="#symbol0" x="0" y="0" width="74" height="73" fill="none" stroke="rgb(253,209,53)" stroke-width="3.00px" clip-path="url(#clip0)"/></g><path fillRule="evenodd" d="M 53.95 53.53C 53.95 53.53 21.67 53.53 21.67 53.53 20.18 53.53 17.63 52.33 17.63 50.84 17.63 49.36 18.83 48.15 20.32 48.15 20.32 48.15 55.3 48.15 55.3 48.15 56.79 48.15 57.99 49.36 57.99 50.84 57.99 52.33 55.44 53.53 53.95 53.53ZM 41.85 50.84C 41.85 50.84 33.77 50.84 33.77 50.84 33.03 50.84 32.43 51.14 32.43 51.52 32.43 51.89 33.03 52.19 33.77 52.19 33.77 52.19 41.85 52.19 41.85 52.19 42.59 52.19 43.19 51.89 43.19 51.52 43.19 51.14 42.59 50.84 41.85 50.84ZM 32.56 33.78C 32.56 33.78 35.05 36.28 35.05 36.28 35.05 36.28 43.05 28.24 43.05 28.24 43.57 27.71 44.42 27.71 44.94 28.24 44.94 28.24 46.84 30.14 46.84 30.14 47.36 30.66 47.36 31.52 46.84 32.04 46.84 32.04 36.42 42.51 36.42 42.51 35.97 42.96 35.3 43 34.78 42.67 34.34 42.78 33.86 42.69 33.51 42.34 33.51 42.34 28.78 37.59 28.78 37.59 28.25 37.06 28.25 36.21 28.78 35.68 28.78 35.68 30.67 33.78 30.67 33.78 31.19 33.26 32.04 33.26 32.56 33.78ZM 51.26 23.94C 51.26 23.94 24.36 23.94 24.36 23.94 24.36 23.94 24.36 45.46 24.36 45.46 24.36 45.46 20.32 45.46 20.32 45.46 20.32 45.46 20.32 42.77 20.32 42.77 20.32 42.77 20.57 42.77 20.57 42.77 20.42 42.35 20.32 41.9 20.32 41.43 20.32 41.43 20.32 23.94 20.32 23.94 20.32 21.71 22.13 19.9 24.36 19.9 24.36 19.9 51.26 19.9 51.26 19.9 53.49 19.9 55.3 21.71 55.3 23.94 55.3 23.94 55.3 41.43 55.3 41.43 55.3 41.9 55.2 42.35 55.05 42.77 55.05 42.77 55.3 42.77 55.3 42.77 55.3 42.77 55.3 45.46 55.3 45.46 55.3 45.46 51.26 45.46 51.26 45.46 51.26 45.46 51.26 23.94 51.26 23.94Z" fill="rgb(253,209,53)"/></svg>