<?xml version="1.0" encoding="utf-8"?>
<svg xmlns="http://www.w3.org/2000/svg"
	xmlns:xlink="http://www.w3.org/1999/xlink"
	width="74px" height="73px" viewBox="0 0 74 73">
<clipPath id="clip0"><path fillRule="evenodd" d="M-2.16 75.44C-2.16 75.44-2.16-2.81-2.16-2.81-2.16-2.81 76.09-2.81 76.09-2.81 76.09-2.81 76.09 75.44 76.09 75.44 76.09 75.44-2.16 75.44-2.16 75.44ZM 36.96 3.19C 18.66 3.19 3.83 18.02 3.83 36.31 3.83 54.6 18.66 69.43 36.96 69.43 55.25 69.43 70.08 54.6 70.08 36.31 70.08 18.02 55.25 3.19 36.96 3.19Z"/></clipPath><defs>
<symbol id="symbol0"><circle cx="37.00" cy="36.00" r="33.00"/></symbol></defs>
<g><use xlink:href="#symbol0" x="0" y="0" width="74" height="73" fill="rgb(255,255,255)"/><use xlink:href="#symbol0" x="0" y="0" width="74" height="73" fill="none" stroke="rgb(253,209,53)" stroke-width="3.00px" clip-path="url(#clip0)"/></g><path fillRule="evenodd" d="M 47.18 52.97C 47.18 52.97 26.19 52.97 26.19 52.97 24.25 52.97 22.69 51.4 22.69 49.46 22.69 49.46 22.69 36.63 22.69 36.63 22.69 34.7 24.25 33.13 26.19 33.13 26.19 33.13 27.35 33.13 27.35 33.13 27.35 33.13 27.35 23.8 27.35 23.8 27.35 19.29 31.53 15.63 36.68 15.63 41.84 15.63 46.02 19.29 46.02 23.8 46.02 23.8 46.02 33.13 46.02 33.13 46.02 33.13 47.18 33.13 47.18 33.13 49.12 33.13 50.68 34.7 50.68 36.63 50.68 36.63 50.68 49.46 50.68 49.46 50.68 51.4 49.12 52.97 47.18 52.97ZM 41.35 23.8C 41.35 21.87 39.26 20.3 36.68 20.3 34.11 20.3 32.02 21.87 32.02 23.8 32.02 23.8 32.02 31.97 32.02 31.97 32.02 32.38 32.13 32.77 32.3 33.13 32.3 33.13 41.07 33.13 41.07 33.13 41.24 32.77 41.35 32.38 41.35 31.97 41.35 31.97 41.35 23.8 41.35 23.8ZM 36.68 36.63C 34.11 36.63 32.02 38.72 32.02 41.3 32.02 43.02 32.96 44.51 34.35 45.32 34.35 45.32 34.35 47.13 34.35 47.13 34.35 48.42 35.4 49.46 36.68 49.46 37.97 49.46 39.02 48.42 39.02 47.13 39.02 47.13 39.02 45.32 39.02 45.32 40.41 44.51 41.35 43.02 41.35 41.3 41.35 38.72 39.26 36.63 36.68 36.63Z" fill="rgb(253,209,53)"/></svg>